<svg id="visual" viewBox="0 0 960 540" width="960" height="540" xmlns="http://www.w3.org/2000/svg" xmlns:xlink="http://www.w3.org/1999/xlink" version="1.1"><rect width="960" height="540" fill="#361800"></rect><g><g transform="translate(697 350)"><path d="M0 -101.2L71.6 -71.6L101.2 0L71.6 71.6L0 101.2L-71.6 71.6L-101.2 0L-71.6 -71.6Z" fill="none" stroke="#FCAF3C" stroke-width="2"></path></g><g transform="translate(911 529)"><path d="M0 -83L58.7 -58.7L83 0L58.7 58.7L0 83L-58.7 58.7L-83 0L-58.7 -58.7Z" fill="none" stroke="#FCAF3C" stroke-width="2"></path></g><g transform="translate(184 355)"><path d="M0 -90L63.6 -63.6L90 0L63.6 63.6L0 90L-63.6 63.6L-90 0L-63.6 -63.6Z" fill="none" stroke="#FCAF3C" stroke-width="2"></path></g><g transform="translate(499 174)"><path d="M0 -79L55.9 -55.9L79 0L55.9 55.9L0 79L-55.9 55.9L-79 0L-55.9 -55.9Z" stroke="#FCAF3C" fill="none" stroke-width="2"></path></g><g transform="translate(21 100)"><path d="M0 -73L51.6 -51.6L73 0L51.6 51.6L0 73L-51.6 51.6L-73 0L-51.6 -51.6Z" stroke="#FCAF3C" fill="none" stroke-width="2"></path></g><g transform="translate(886 249)"><path d="M0 -70L49.5 -49.5L70 0L49.5 49.5L0 70L-49.5 49.5L-70 0L-49.5 -49.5Z" stroke="#FCAF3C" fill="none" stroke-width="2"></path></g><g transform="translate(666 55)"><path d="M0 -64L45.3 -45.3L64 0L45.3 45.3L0 64L-45.3 45.3L-64 0L-45.3 -45.3Z" stroke="#FCAF3C" fill="none" stroke-width="2"></path></g></g></svg>