<svg id="visual" viewBox="0 0 960 540" width="960" height="540" xmlns="http://www.w3.org/2000/svg" xmlns:xlink="http://www.w3.org/1999/xlink" version="1.1"><rect x="0" y="0" width="960" height="540" fill="#001220"></rect><defs><linearGradient id="grad1_0" x1="43.8%" y1="0%" x2="100%" y2="100%"><stop offset="14.444444444444446%" stop-color="#001220" stop-opacity="1"></stop><stop offset="85.55555555555554%" stop-color="#001220" stop-opacity="1"></stop></linearGradient></defs><defs><linearGradient id="grad2_0" x1="0%" y1="0%" x2="56.3%" y2="100%"><stop offset="14.444444444444446%" stop-color="#001220" stop-opacity="1"></stop><stop offset="85.55555555555554%" stop-color="#001220" stop-opacity="1"></stop></linearGradient></defs><g transform="translate(960, 0)"><path d="M0 324C-33.6 301.9 -67.2 279.8 -111.4 268.8C-155.6 257.9 -210.4 257.9 -229.1 229.1C-247.8 200.3 -230.4 142.5 -240.2 99.5C-250 56.5 -287 28.2 -324 0L0 0Z" fill="#e89517"></path></g><g transform="translate(0, 540)"><path d="M0 -324C39.3 -314.5 78.5 -305.1 120.9 -291.9C163.3 -278.8 208.9 -262.1 229.1 -229.1C249.3 -196.1 244.3 -146.9 255.9 -106C267.5 -65.1 295.8 -32.6 324 0L0 0Z" fill="#e89517"></path></g></svg>