<svg id="visual" viewBox="0 0 960 540" width="960" height="540" xmlns="http://www.w3.org/2000/svg" xmlns:xlink="http://www.w3.org/1999/xlink" version="1.1"><rect x="0" y="0" width="960" height="540" fill="#001220"></rect><defs><linearGradient id="grad1_0" x1="43.8%" y1="100%" x2="100%" y2="0%"><stop offset="14.444444444444446%" stop-color="#fbae3c" stop-opacity="1"></stop><stop offset="85.55555555555554%" stop-color="#fbae3c" stop-opacity="1"></stop></linearGradient></defs><defs><linearGradient id="grad1_1" x1="43.8%" y1="100%" x2="100%" y2="0%"><stop offset="14.444444444444446%" stop-color="#fbae3c" stop-opacity="1"></stop><stop offset="85.55555555555554%" stop-color="#96446e" stop-opacity="1"></stop></linearGradient></defs><defs><linearGradient id="grad1_2" x1="43.8%" y1="100%" x2="100%" y2="0%"><stop offset="14.444444444444446%" stop-color="#001220" stop-opacity="1"></stop><stop offset="85.55555555555554%" stop-color="#96446e" stop-opacity="1"></stop></linearGradient></defs><defs><linearGradient id="grad2_0" x1="0%" y1="100%" x2="56.3%" y2="0%"><stop offset="14.444444444444446%" stop-color="#fbae3c" stop-opacity="1"></stop><stop offset="85.55555555555554%" stop-color="#fbae3c" stop-opacity="1"></stop></linearGradient></defs><defs><linearGradient id="grad2_1" x1="0%" y1="100%" x2="56.3%" y2="0%"><stop offset="14.444444444444446%" stop-color="#96446e" stop-opacity="1"></stop><stop offset="85.55555555555554%" stop-color="#fbae3c" stop-opacity="1"></stop></linearGradient></defs><defs><linearGradient id="grad2_2" x1="0%" y1="100%" x2="56.3%" y2="0%"><stop offset="14.444444444444446%" stop-color="#96446e" stop-opacity="1"></stop><stop offset="85.55555555555554%" stop-color="#001220" stop-opacity="1"></stop></linearGradient></defs><g transform="translate(960, 540)"><path d="M-405 0C-402.7 -55.6 -400.5 -111.1 -374.2 -155C-347.9 -198.8 -297.6 -230.9 -253.1 -253.1C-208.7 -275.4 -170.2 -287.7 -129 -311.3C-87.8 -335 -43.9 -370 0 -405L0 0Z" fill="#3d3056"></path><path d="M-270 0C-268.5 -37 -267 -74.1 -249.4 -103.3C-231.9 -132.6 -198.4 -154 -168.8 -168.8C-139.1 -183.6 -113.4 -191.8 -86 -207.6C-58.5 -223.3 -29.3 -246.7 0 -270L0 0Z" fill="#e1685e"></path><path d="M-135 0C-134.2 -18.5 -133.5 -37 -124.7 -51.7C-116 -66.3 -99.2 -77 -84.4 -84.4C-69.6 -91.8 -56.7 -95.9 -43 -103.8C-29.3 -111.7 -14.6 -123.3 0 -135L0 0Z" fill="#fbae3c"></path></g><g transform="translate(0, 0)"><path d="M405 0C406.5 60.6 408.1 121.3 374.2 155C340.2 188.7 270.8 195.4 232.6 232.6C194.4 269.9 187.4 337.6 153.8 371.4C120.3 405.2 60.1 405.1 0 405L0 0Z" fill="#3d3056"></path><path d="M270 0C271 40.4 272.1 80.9 249.4 103.3C226.8 125.8 180.6 130.3 155.1 155.1C129.6 179.9 124.9 225.1 102.6 247.6C80.2 270.1 40.1 270.1 0 270L0 0Z" fill="#e1685e"></path><path d="M135 0C135.5 20.2 136 40.4 124.7 51.7C113.4 62.9 90.3 65.1 77.5 77.5C64.8 90 62.5 112.5 51.3 123.8C40.1 135.1 20 135 0 135L0 0Z" fill="#fbae3c"></path></g></svg>