<svg id="visual" viewBox="0 0 900 600" width="900" height="600" xmlns="http://www.w3.org/2000/svg" xmlns:xlink="http://www.w3.org/1999/xlink" version="1.1"><rect x="0" y="0" width="900" height="600" fill="#381900"></rect><path d="M591 600L570.2 587.5C549.3 575 507.7 550 482.3 525C457 500 448 475 475 450C502 425 565 400 593.7 375C622.3 350 616.7 325 598.5 300C580.3 275 549.7 250 550.8 225C552 200 585 175 593.2 150C601.3 125 584.7 100 587.8 75C591 50 614 25 625.5 12.5L637 0L900 0L900 12.5C900 25 900 50 900 75C900 100 900 125 900 150C900 175 900 200 900 225C900 250 900 275 900 300C900 325 900 350 900 375C900 400 900 425 900 450C900 475 900 500 900 525C900 550 900 575 900 587.5L900 600Z" fill="#fcaf3c"></path><path d="M670 600L648 587.5C626 575 582 550 569.7 525C557.3 500 576.7 475 596.5 450C616.3 425 636.7 400 641.7 375C646.7 350 636.3 325 623.2 300C610 275 594 250 597 225C600 200 622 175 636.3 150C650.7 125 657.3 100 647.2 75C637 50 610 25 596.5 12.5L583 0L900 0L900 12.5C900 25 900 50 900 75C900 100 900 125 900 150C900 175 900 200 900 225C900 250 900 275 900 300C900 325 900 350 900 375C900 400 900 425 900 450C900 475 900 500 900 525C900 550 900 575 900 587.5L900 600Z" fill="#fba230"></path><path d="M696 600L705.7 587.5C715.3 575 734.7 550 725.7 525C716.7 500 679.3 475 653.3 450C627.3 425 612.7 400 627.2 375C641.7 350 685.3 325 710.7 300C736 275 743 250 723 225C703 200 656 175 649.5 150C643 125 677 100 698.3 75C719.7 50 728.3 25 732.7 12.5L737 0L900 0L900 12.5C900 25 900 50 900 75C900 100 900 125 900 150C900 175 900 200 900 225C900 250 900 275 900 300C900 325 900 350 900 375C900 400 900 425 900 450C900 475 900 500 900 525C900 550 900 575 900 587.5L900 600Z" fill="#fa9424"></path><path d="M691 600L707.5 587.5C724 575 757 550 762.3 525C767.7 500 745.3 475 747 450C748.7 425 774.3 400 783.7 375C793 350 786 325 781.3 300C776.7 275 774.3 250 768.2 225C762 200 752 175 751.5 150C751 125 760 100 760.2 75C760.3 50 751.7 25 747.3 12.5L743 0L900 0L900 12.5C900 25 900 50 900 75C900 100 900 125 900 150C900 175 900 200 900 225C900 250 900 275 900 300C900 325 900 350 900 375C900 400 900 425 900 450C900 475 900 500 900 525C900 550 900 575 900 587.5L900 600Z" fill="#f98619"></path><path d="M849 600L848.2 587.5C847.3 575 845.7 550 833 525C820.3 500 796.7 475 783.8 450C771 425 769 400 773.2 375C777.3 350 787.7 325 800.5 300C813.3 275 828.7 250 839 225C849.3 200 854.7 175 854.3 150C854 125 848 100 831.2 75C814.3 50 786.7 25 772.8 12.5L759 0L900 0L900 12.5C900 25 900 50 900 75C900 100 900 125 900 150C900 175 900 200 900 225C900 250 900 275 900 300C900 325 900 350 900 375C900 400 900 425 900 450C900 475 900 500 900 525C900 550 900 575 900 587.5L900 600Z" fill="#f7770f"></path></svg>