<svg id="visual" viewBox="0 0 960 540" width="960" height="540" xmlns="http://www.w3.org/2000/svg" xmlns:xlink="http://www.w3.org/1999/xlink" version="1.1"><rect width="960" height="540" fill="#291f0f"></rect><g><g transform="translate(713 501)"><path d="M102.7 -32.8C116.1 7.8 98.2 59.2 64.3 82.3C30.5 105.4 -19.3 100.2 -54.3 74.8C-89.4 49.3 -109.7 3.5 -98.2 -34.5C-86.7 -72.5 -43.3 -102.8 0.7 -103C44.6 -103.2 89.3 -73.4 102.7 -32.8Z" stroke="#F7760E" fill="none" stroke-width="20"></path></g><g transform="translate(554 149)"><path d="M78.8 -26.8C89.7 7.9 77.5 49 50.4 68.5C23.3 87.9 -18.8 85.9 -46.4 65.4C-74 45 -87.1 6.2 -77 -27.5C-66.8 -61.2 -33.4 -89.7 0.3 -89.8C33.9 -89.9 67.9 -61.5 78.8 -26.8Z" stroke="#F7760E" fill="none" stroke-width="20"></path></g><g transform="translate(153 350)"><path d="M62.1 -20.5C71.2 8 63 41.7 41.4 57.6C19.7 73.5 -15.4 71.6 -36.6 55.1C-57.7 38.6 -64.8 7.6 -56.4 -19.9C-47.9 -47.4 -24 -71.4 1.3 -71.8C26.5 -72.2 53 -49 62.1 -20.5Z" stroke="#F7760E" fill="none" stroke-width="20"></path></g><g transform="translate(890 182)"><path d="M69.2 -22.8C77.6 3.4 64.1 36.5 39.2 54.7C14.4 72.9 -21.7 76.3 -45.2 59.8C-68.7 43.3 -79.6 6.9 -69.9 -21C-60.3 -48.9 -30.2 -68.3 0.1 -68.4C30.4 -68.4 60.8 -49 69.2 -22.8Z" stroke="#F7760E" fill="none" stroke-width="20"></path></g></g></svg>